<?xml version="1.0" encoding="utf-8"?>
<!-- Generator: Adobe Illustrator 16.0.3, SVG Export Plug-In . SVG Version: 6.00 Build 0)  -->
<!DOCTYPE svg PUBLIC "-//W3C//DTD SVG 1.1//EN" "http://www.w3.org/Graphics/SVG/1.1/DTD/svg11.dtd">
<svg version="1.1" id="レイヤー_1" xmlns="http://www.w3.org/2000/svg" xmlns:xlink="http://www.w3.org/1999/xlink" x="0px"
	 y="0px" width="850.394px" height="418.479px" viewBox="0 0 850.394 418.479" enable-background="new 0 0 850.394 418.479"
	 xml:space="preserve">
<g>
	<path fill="#0E3288" d="M402.709,139.175h-31.417v51.166c-25.68-31.466-63.966-51.95-108.442-51.606v139.866h31.451v-103.97
		c44.608,13.514,77.161,55,77.161,103.97h31.247V139.175z"/>
	<path fill="#0E3288" d="M0,186.049l16.464,5.786C53.191,87.523,152.229,17.447,262.869,17.447
		c73.031,0,143.244,30.915,192.605,84.798l12.877-11.776C415.693,32.975,340.79,0,262.869,0C144.833,0,39.173,74.765,0,186.049"/>
	<path fill="#0E3288" d="M307.089,377.843c-13.634,6.064-28.649,9.375-44.234,9.375c-59.888,0-108.607-48.719-108.607-108.617
		c0-32.005,13.696-61.01,35.992-80.979l-20.885-23.306c-28.726,25.723-46.365,63.051-46.365,104.285
		c0,77.124,62.752,139.879,139.866,139.879c20.063,0,39.396-4.263,56.962-12.072L307.089,377.843z"/>
	<path fill="#0E3288" d="M262.85,108.252V84.83c-106.841,0-193.754,86.929-193.754,193.771c0,32.71,8.302,65.023,23.995,93.471
		l20.51-11.279c-13.797-25.004-21.097-53.437-21.097-82.191C92.504,184.672,168.942,108.252,262.85,108.252"/>
	<path fill="#0E3288" d="M635.24,141.885c-8.439-1.648-19.997-2.71-32.695-2.71h-41.148v139.426h41.148
		c12.698,0,25.693-0.704,34.101-2.506c29.898-6.283,51.605-31.873,51.605-67.195C688.251,173.568,668.183,148.24,635.24,141.885
		 M622.276,246.609c-4.087,0.204-11.278,0.834-15.602,0.834h-13.843v-77.111h13.843c4.323,0,11.661,0.101,15.748,0.504
		c20.595,2.089,34.57,13.793,34.57,38.063C656.993,233.176,641.523,245.569,622.276,246.609"/>
	<path fill="#0E3288" d="M775.791,134.275c-41.221,0-74.618,33.396-74.618,74.61c0,41.211,33.397,74.622,74.618,74.622
		c41.206,0,74.603-33.411,74.603-74.622C850.394,167.672,816.997,134.275,775.791,134.275 M775.791,252.292
		c-23.98,0-43.402-19.424-43.402-43.406c0-23.972,19.422-43.396,43.402-43.396c23.966,0,43.388,19.424,43.388,43.396
		C819.179,232.868,799.757,252.292,775.791,252.292"/>
	<polygon fill="#0E3288" points="536.421,169.87 536.421,139.175 431.247,139.175 431.247,278.601 536.421,278.601 536.421,247.912 
		462.684,247.897 462.684,223.773 531.325,223.773 531.325,193.072 462.684,193.072 462.684,169.849 	"/>
</g>
</svg>
